<svg width="100" height="100" viewBox="0 0 100 100" fill="none" xmlns="http://www.w3.org/2000/svg">
  <style>
    path {
      fill: black;
    }

    @media (prefers-color-scheme: dark) {
      path {
        fill: white;
      }
    }
  </style>
  <path
    d="M51.136 37.72C51.136 39.112 50.92 40.36 50.488 41.464C50.104 42.568 49.552 43.552 48.832 44.416C48.112 45.28 47.272 46.048 46.312 46.72C45.352 47.392 44.296 48.016 43.144 48.592C43.672 48.784 44.296 49.096 45.016 49.528C45.736 49.912 46.432 50.464 47.104 51.184C47.776 51.904 48.328 52.84 48.76 53.992C49.24 55.096 49.48 56.464 49.48 58.096C49.48 60.256 49.024 62.248 48.112 64.072C47.2 65.896 45.832 67.48 44.008 68.824C42.232 70.12 40.024 71.152 37.384 71.92C34.792 72.64 31.792 73 28.384 73H7L16.72 27.28H35.656C37.528 27.28 39.376 27.424 41.2 27.712C43.072 27.952 44.728 28.456 46.168 29.224C47.656 29.992 48.856 31.072 49.768 32.464C50.68 33.808 51.136 35.56 51.136 37.72ZM31.552 46.432C32.608 46.432 33.496 46.12 34.216 45.496C34.984 44.872 35.608 44.104 36.088 43.192C36.568 42.232 36.928 41.224 37.168 40.168C37.408 39.064 37.528 38.08 37.528 37.216C37.528 35.824 37.192 34.648 36.52 33.688C35.896 32.68 34.888 32.176 33.496 32.176H31.336L28.24 46.432H31.552ZM26.368 68.464C27.808 68.464 29.008 68.056 29.968 67.24C30.928 66.424 31.72 65.416 32.344 64.216C32.968 63.016 33.4 61.768 33.64 60.472C33.928 59.128 34.072 57.952 34.072 56.944C34.072 55.264 33.712 53.944 32.992 52.984C32.32 51.976 31.216 51.472 29.68 51.472H27.016L23.488 68.464H26.368ZM77.0549 55.72L73.3829 73H57.7589L61.7189 54.496L54.6629 27.28H71.9429L76.8389 45.352L87.6389 27.28H95.4149L77.0549 55.72Z"
    fill="black" />
</svg>