<svg width="32" height="32" viewBox="0 0 32 32" fill="none" xmlns="http://www.w3.org/2000/svg">
<g clip-path="url(#clip0_3_20)">
<g clip-path="url(#clip1_3_20)">
<path d="M23.6724 7.82688C29.0398 13.1928 30.4901 20.4444 26.9121 24.0209C23.3341 27.599 16.084 26.1487 10.7173 20.7827C10.535 20.6004 10.3687 20.4108 10.1952 20.2242L13.4159 17.0034C17.5897 21.1772 22.9068 22.6282 25.2911 20.2424C27.6762 17.8573 26.2259 12.5402 22.0529 8.36647L22.069 8.38178L22.0536 8.36574C17.2842 3.59553 10.7581 2.3873 7.47906 5.66636C5.89312 7.2523 5.36667 9.59876 5.77427 12.1363C5.14864 9.15907 5.66489 6.40063 7.47906 4.5872C11.0564 1.00991 18.3065 2.46022 23.6724 7.82688Z" fill="#FDD888"/>
<path d="M16.773 27.4166C16.5893 27.4166 16.4063 27.3605 16.2488 27.2482L12.5475 24.5933L8.84625 27.2482C8.53052 27.4743 8.10761 27.4743 7.79407 27.2446C7.64134 27.1338 7.52742 26.9777 7.46851 26.7985C7.4096 26.6193 7.4087 26.4261 7.46594 26.2463L8.84698 21.7911L5.17854 19.2062C5.02683 19.0937 4.91417 18.9365 4.85636 18.7567C4.79856 18.5769 4.79852 18.3835 4.85625 18.2036C4.91542 18.0245 5.02913 17.8684 5.18146 17.7571C5.33379 17.6458 5.5171 17.585 5.70573 17.5831L10.1879 17.5744L11.6951 13.2307C11.7547 13.0516 11.8692 12.8957 12.0223 12.7852C12.1754 12.6748 12.3594 12.6154 12.5482 12.6154C12.737 12.6154 12.9211 12.6748 13.0742 12.7852C13.2273 12.8957 13.3418 13.0516 13.4014 13.2307L14.762 17.5744L19.39 17.5831C19.5789 17.5843 19.7626 17.645 19.9151 17.7565C20.0675 17.868 20.181 18.0248 20.2393 18.2044C20.2977 18.3841 20.298 18.5776 20.2402 18.7574C20.1823 18.9372 20.0693 19.0943 19.9172 19.2062L16.2488 21.7911L17.6291 26.2463C17.6722 26.381 17.6828 26.5239 17.6602 26.6634C17.6375 26.803 17.5822 26.9352 17.4988 27.0493C17.4153 27.1634 17.3061 27.2561 17.1799 27.32C17.0538 27.3838 16.9144 27.4169 16.773 27.4166Z" fill="#FFAC33"/>
</g>
</g>
<defs>
<clipPath id="clip0_3_20">
<rect width="32" height="32" fill="white"/>
</clipPath>
<clipPath id="clip1_3_20">
<rect width="26.25" height="26.25" fill="white" transform="translate(2.625 2.625)"/>
</clipPath>
</defs>
</svg>
