<svg width="32" height="32" viewBox="0 0 32 32" fill="none" xmlns="http://www.w3.org/2000/svg">
<rect width="32" height="32" fill="white"/>
<path fill-rule="evenodd" clip-rule="evenodd" d="M17.0469 4C17.1823 4 17.3162 4.00124 17.4486 4.00372L26.4678 10.5565C26.4684 10.5949 26.4688 10.6333 26.4688 10.6719C26.4688 12.224 25.9792 13.5833 25 14.75C26.125 15.4167 26.9635 16.2812 27.5156 17.3438C27.922 18.1259 28.1789 18.987 28.2861 19.9272L17.346 27.8757L4 23.25V9.09375L17.0469 4ZM18.9531 13.375C19.3802 13.375 19.7969 13.3906 20.2031 13.4219C20.901 12.7552 21.25 11.9948 21.25 11.1406C21.25 10.2552 20.901 9.57292 20.2031 9.09375C19.5156 8.60417 18.5052 8.35938 17.1719 8.35938H8.95312V13.375H18.9531ZM19.0469 24.1094C20.3802 24.1094 21.3906 23.8229 22.0781 23.25C22.776 22.6771 23.125 21.8698 23.125 20.8281C23.125 19.7865 22.776 18.974 22.0781 18.3906C21.3906 17.8073 20.3802 17.5156 19.0469 17.5156H8.95312V24.1094H19.0469Z" fill="black"/>
</svg>
